<svg width="43" height="43" viewBox="0 0 43 43" fill="none" xmlns="http://www.w3.org/2000/svg">
<path d="M7.52477 15.0499C11.6741 15.0499 15.0495 11.6744 15.0495 7.52516C15.0499 3.37548 11.6744 0 7.52477 0C3.37548 0 0 3.37548 0 7.52477C0 11.6744 3.37548 15.0499 7.52477 15.0499ZM7.52477 2.14999C10.4874 2.14999 12.8997 4.55999 12.8997 7.52497C12.8997 10.4899 10.4874 12.8999 7.52477 12.8999C4.56211 12.8999 2.1498 10.4899 2.1498 7.52497C2.1498 4.56038 4.56211 2.14999 7.52477 2.14999Z" fill="black"/>
<path d="M22.5742 15.05C25.5369 15.05 27.9492 12.64 27.9492 9.67502C27.9492 6.71005 25.5369 4.30005 22.5742 4.30005C19.6115 4.30005 17.1992 6.71005 17.1992 9.67502C17.1992 12.64 19.6115 15.05 22.5742 15.05ZM22.5742 6.44985C24.3521 6.44985 25.7994 7.89668 25.7994 9.67502C25.7994 11.4529 24.3525 12.8998 22.5742 12.8998C20.7963 12.8998 19.3494 11.453 19.3494 9.67502C19.3494 7.89677 20.7962 6.44985 22.5742 6.44985Z" fill="black"/>
<path d="M42.4904 21.659C42.1721 21.4656 41.7788 21.4461 41.4455 21.6141L34.3998 25.1357V22.5749C34.3998 19.61 31.9875 17.2 29.0249 17.2H5.37498C2.41231 17.2 0 19.61 0 22.5749V37.6249C0 40.5898 2.41231 42.9998 5.37498 42.9998H29.0249C31.9875 42.9998 34.3998 40.5898 34.3998 37.6249V35.0641L41.4433 38.588C41.7788 38.7538 42.1721 38.7343 42.4882 38.543C42.8065 38.3428 43 37.9968 43 37.6248V22.5749C43 22.203 42.8065 21.8569 42.4905 21.659L42.4904 21.659ZM40.8501 35.8855L33.8067 32.3615C33.4734 32.1958 33.0756 32.2153 32.7617 32.4065C32.4434 32.6067 32.2499 32.9527 32.2499 33.3247V37.6248C32.2499 39.4026 30.8031 40.8499 29.0248 40.8499H5.37488C3.59701 40.8499 2.1497 39.4031 2.1497 37.6248V22.5748C2.1497 20.797 3.59653 19.3496 5.37488 19.3496H29.0248C30.8026 19.3496 32.2499 20.7965 32.2499 22.5748V26.8749C32.2499 27.2468 32.4434 27.5929 32.7595 27.7908C33.0733 27.9821 33.4711 28.0016 33.8044 27.8358L40.8479 24.3119V35.8853L40.8501 35.8855Z" fill="black"/>
</svg>
