<svg width="43" height="43" viewBox="0 0 43 43" fill="none" xmlns="http://www.w3.org/2000/svg">
<path d="M38.6998 32.74V23.1903C38.6985 22.507 38.4262 21.8518 37.9428 21.3687C37.4591 20.8853 36.8035 20.6132 36.1198 20.6119H22.36V10.2412C24.0764 9.9512 25.5312 8.81583 26.2283 7.22126C26.9254 5.62702 26.7709 3.78886 25.8178 2.33312C24.8644 0.877375 23.241 0 21.4999 0C19.7588 0 18.1355 0.877375 17.182 2.33312C16.2289 3.78886 16.0744 5.62702 16.7715 7.22126C17.4687 8.81574 18.9234 9.9512 20.6399 10.2412V20.6307H6.88001C6.1963 20.632 5.54072 20.9041 5.05699 21.3872C4.57357 21.8707 4.3013 22.5258 4.30002 23.2091V32.7588C2.58356 33.0488 1.12878 34.1842 0.431701 35.7784C-0.26544 37.3729 -0.110913 39.2108 0.842178 40.6669C1.79562 42.1226 3.41896 43 5.16007 43C6.90118 43 8.52451 42.1226 9.47796 40.6669C10.4311 39.2108 10.5855 37.373 9.88843 35.7784C9.19129 34.1842 7.73657 33.0488 6.02012 32.7588V23.2091C6.02012 22.7343 6.405 22.3496 6.88011 22.3496H20.64V32.7392C18.9235 33.0292 17.4687 34.1645 16.7716 35.7591C16.0745 37.3533 16.229 39.1915 17.1821 40.6472C18.1356 42.103 19.7589 42.9804 21.5 42.9804C23.2411 42.9804 24.8644 42.103 25.8179 40.6472C26.771 39.1915 26.9255 37.3533 26.2284 35.7591C25.5312 34.1646 24.0765 33.0292 22.3601 32.7392V22.3496H36.1199C36.595 22.3496 36.9799 22.7343 36.9799 23.2091V32.7588C35.2634 33.0488 33.8087 34.1842 33.1116 35.7784C32.4144 37.3729 32.569 39.2108 33.522 40.6669C34.4755 42.1226 36.0988 43 37.8399 43C39.5811 43 41.2044 42.1226 42.1578 40.6669C43.1109 39.2108 43.2654 37.373 42.5683 35.7784C41.8712 34.1842 40.4164 33.0488 38.7 32.7588L38.6998 32.74ZM8.60012 37.8202C8.60012 38.7321 8.23763 39.6062 7.59262 40.2511C6.94731 40.8957 6.07257 41.258 5.16016 41.258C4.24775 41.258 3.37302 40.8957 2.72769 40.2511C2.0827 39.6062 1.7202 38.732 1.7202 37.8202C1.7202 36.9084 2.08269 36.0342 2.72769 35.3893C3.37301 34.7447 4.24775 34.3824 5.16016 34.3824C6.07199 34.3837 6.9464 34.7463 7.59106 35.3908C8.23606 36.0351 8.59889 36.909 8.60012 37.8202ZM24.9399 37.8202C24.9399 38.7321 24.5774 39.6062 23.9324 40.2511C23.2871 40.8957 22.4124 41.258 21.5 41.258C20.5876 41.258 19.7128 40.8957 19.0675 40.2511C18.4225 39.6062 18.06 38.732 18.06 37.8202C18.06 36.9084 18.4225 36.0342 19.0675 35.3893C19.7128 34.7447 20.5876 34.3824 21.5 34.3824C22.4118 34.3837 23.2862 34.7463 23.9309 35.3908C24.5759 36.0351 24.9387 36.909 24.9399 37.8202ZM21.5 8.59892C20.5875 8.59892 19.7128 8.23666 19.0675 7.59206C18.4225 6.94715 18.06 6.07296 18.06 5.16113C18.06 4.24929 18.4225 3.37511 19.0675 2.73019C19.7128 2.08561 20.5876 1.72333 21.5 1.72333C22.4124 1.72333 23.2871 2.08559 23.9324 2.73019C24.5774 3.3751 24.9399 4.24929 24.9399 5.16113C24.9387 6.07239 24.5759 6.94624 23.9309 7.5905C23.2862 8.23509 22.4118 8.5977 21.5 8.59892ZM37.8398 41.258C36.9273 41.258 36.0527 40.8957 35.4073 40.2511C34.7623 39.6062 34.3998 38.732 34.3998 37.8202C34.3998 36.9084 34.7623 36.0342 35.4073 35.3893C36.0527 34.7447 36.9274 34.3824 37.8398 34.3824C38.7522 34.3824 39.6269 34.7447 40.2723 35.3893C40.9173 36.0342 41.2798 36.9084 41.2798 37.8202C41.2785 38.7315 40.9157 39.6053 40.2707 40.2496C39.626 40.8942 38.7516 41.2568 37.8398 41.258Z" fill="black"/>
</svg>
