<svg width="10" height="14" viewBox="0 0 10 14" fill="none" xmlns="http://www.w3.org/2000/svg">
<path d="M2.9362 7.68082C2.87529 7.68082 1.53538 7.68082 0.926334 7.68082C0.601508 7.68082 0.5 7.58695 0.5 7.35228C0.5 6.7265 0.5 6.08507 0.5 5.45929C0.5 5.20898 0.62181 5.13075 0.926334 5.13075H2.9362C2.9362 5.08382 2.9362 4.17644 2.9362 3.75403C2.9362 3.12825 3.07831 2.53376 3.48434 1.9862C3.91067 1.42299 4.51972 1.04752 5.29118 0.828501C5.79872 0.6877 6.30626 0.625122 6.85441 0.625122H8.84397C9.12819 0.625122 9.25 0.718989 9.25 0.938013V2.72149C9.25 2.94052 9.12819 3.03438 8.84397 3.03438C8.29582 3.03438 7.74768 3.03438 7.19954 3.05003C6.65139 3.05003 6.36717 3.25341 6.36717 3.69145C6.34687 4.16079 6.36717 4.61448 6.36717 5.09946H8.72216C9.04698 5.09946 9.16879 5.19333 9.16879 5.44365V7.33664C9.16879 7.58695 9.06729 7.66517 8.72216 7.66517C7.9913 7.66517 6.42807 7.66517 6.36717 7.66517V12.7653C6.36717 13.0313 6.26566 13.1251 5.90023 13.1251C5.04756 13.1251 4.2152 13.1251 3.36253 13.1251C3.058 13.1251 2.9362 13.0313 2.9362 12.7966C2.9362 11.1539 2.9362 7.72775 2.9362 7.68082Z" fill="black"/>
</svg>
