<svg width="32" height="40" viewBox="0 0 32 40" fill="none" xmlns="http://www.w3.org/2000/svg">
<path d="M31.1267 5.8428C30.9191 5.7229 30.6631 5.7229 30.4555 5.8428L24.7412 8.12852L27.0983 0.98565C27.1793 0.770727 27.1471 0.529339 27.0126 0.342792C26.8869 0.144767 26.6752 0.0175347 26.4411 0H5.01253C4.78134 0.00350768 4.56482 0.114155 4.42675 0.300066C4.27751 0.478637 4.22936 0.720662 4.29824 0.942924L6.65538 8.08579L0.998153 5.71428C0.790561 5.59437 0.534504 5.59437 0.326911 5.71428C0.083605 5.86383 -0.0417089 6.14827 0.0124953 6.42856V20.7143C0.00930655 20.9506 0.127932 21.1719 0.326911 21.3001C0.523663 21.4372 0.776847 21.4643 0.998153 21.3715L6.71245 19.0858L4.29824 26.1999C4.21724 26.4152 4.24945 26.6566 4.38402 26.8428C4.53071 27.0408 4.76635 27.1534 5.01253 27.1428H12.8697V39.2857C12.8697 39.6802 13.1895 40 13.584 40C13.9784 40 14.2983 39.6802 14.2983 39.2857V27.1428H17.1554V39.2857C17.1554 39.6802 17.4752 40 17.8697 40C18.2641 40 18.584 39.6802 18.584 39.2857V27.1428H26.4411C26.6723 27.1393 26.8888 27.0287 27.0269 26.8428C27.1615 26.6566 27.1937 26.4152 27.1127 26.1999L24.7555 19.0571L30.4698 21.3428C30.6908 21.4356 30.9443 21.4088 31.1411 21.2713C31.326 21.1457 31.4379 20.9378 31.4411 20.7143V6.42853C31.4443 6.19225 31.3257 5.97099 31.1267 5.8428ZM5.99853 1.42859H25.4557L23.0698 8.57146H8.38408L5.99853 1.42859ZM22.8704 10V17.1429H8.58465V10H22.8704ZM1.44179 19.6572V7.48574L7.15608 9.77146V17.3716L1.44179 19.6572ZM25.4565 25.7143H5.99934L8.38522 18.5714H23.071L25.4565 25.7143ZM30.0136 19.6572L24.2993 17.3715V9.77129L30.0136 7.48558V19.6572Z" fill="black"/>
</svg>
