<svg width="13" height="14" viewBox="0 0 13 14" fill="none" xmlns="http://www.w3.org/2000/svg">
<path d="M12.7496 13.1254V8.76524C12.7496 6.62238 12.2628 4.98547 9.62459 4.98547C8.3526 4.98547 7.50461 5.64024 7.15913 6.26524H7.12773V5.17893H4.63086V13.1254H7.23765V9.18191C7.23765 8.14024 7.4418 7.14321 8.7923 7.14321C10.1271 7.14321 10.1428 8.31881 10.1428 9.24143V13.1105H12.7496V13.1254Z" fill="black"/>
<path d="M0.454102 5.17883H3.06089V13.1253H0.454102V5.17883Z" fill="black"/>
<path d="M1.75754 0.625122C0.925253 0.625122 0.25 1.265 0.25 2.05369C0.25 2.84239 0.925253 3.49715 1.75754 3.49715C2.58983 3.49715 3.26508 2.84239 3.26508 2.05369C3.26508 1.265 2.58983 0.625122 1.75754 0.625122Z" fill="black"/>
</svg>
