<svg width="25" height="43" viewBox="0 0 25 43" fill="none" xmlns="http://www.w3.org/2000/svg">
<path d="M5.78711 16.4026V21.1083C5.78711 24.5307 8.79832 27.3152 12.4997 27.3152C16.201 27.3152 19.2122 24.5307 19.2122 21.1083V16.4026C19.2122 14.7421 18.5125 13.1821 17.2416 12.0094C15.9747 10.8401 14.2904 10.1963 12.4997 10.1963C8.79832 10.1963 5.78711 12.9802 5.78711 16.4026ZM17.6855 16.4026V21.1083C17.6855 23.7405 15.3594 25.8818 12.4999 25.8818C9.64029 25.8818 7.31418 23.7404 7.31418 21.1083V16.4026C7.31418 13.7707 9.64029 11.6294 12.4999 11.6294C13.8877 11.6294 15.1917 12.1272 16.1712 13.0314C17.148 13.9323 17.6854 15.1299 17.6854 16.4026H17.6855Z" fill="black"/>
<path d="M20.4454 9.00214H20.4535C20.8751 9.00214 21.2129 8.68124 21.2129 8.28547C21.2129 8.04776 21.0882 7.83723 20.8973 7.70669C18.546 5.92337 15.5648 4.94141 12.499 4.94141C9.447 4.94141 6.47941 5.91436 4.1328 7.68237C3.92285 7.80971 3.78516 8.03238 3.78516 8.28546C3.78516 8.68123 4.13109 9.00213 4.55269 9.00213C4.72788 9.00213 4.89829 8.9455 5.03428 8.84153C7.11879 7.25043 9.77 6.37478 12.499 6.37478C15.2281 6.37478 17.8793 7.25076 19.9638 8.84153C20.1001 8.94518 20.2702 9.00214 20.4454 9.00214Z" fill="black"/>
<path d="M24.7349 4.24466C21.3573 1.50755 17.0118 0 12.4997 0C7.98761 0 3.64198 1.50755 0.264499 4.24466C-0.0545086 4.50317 -0.0899587 4.95557 0.185427 5.25537C0.460469 5.5542 0.942059 5.58779 1.2621 5.3296C4.36292 2.81707 8.35395 1.43336 12.5 1.43336C16.6461 1.43336 20.6372 2.81715 23.738 5.3296C23.8821 5.44638 24.0597 5.50397 24.2362 5.50397C24.4506 5.50397 24.6633 5.41951 24.8143 5.25537C25.09 4.95591 25.0546 4.50318 24.7356 4.24466L24.7349 4.24466Z" fill="black"/>
<path d="M20.3335 24.4119C19.3789 24.5879 18.6386 25.31 18.4453 26.2605C18.0984 28.0945 16.6989 29.6299 14.7887 30.2688C14.1718 30.48 13.516 30.5865 12.8398 30.5865H12.1599C11.4837 30.5865 10.8279 30.4796 10.2073 30.2678C8.31532 29.6324 6.91555 28.1066 6.55399 26.289C6.36858 25.3321 5.48446 24.5979 4.47733 24.5133C4.45381 24.5092 4.38803 24.4983 4.36451 24.4961C3.59084 24.4244 2.85262 24.6963 2.33898 25.2393C1.8257 25.7832 1.62699 26.5034 1.79434 27.2162C2.24354 29.1061 3.2653 30.8293 4.74927 32.1984C5.99294 33.3464 7.51713 34.199 9.18677 34.6853V42.2833C9.18677 42.6791 9.52862 43 9.95022 43C10.3718 43 10.7137 42.6791 10.7137 42.2833V34.1423C10.7137 33.8137 10.4758 33.5274 10.1366 33.4474C8.50479 33.0622 7.01201 32.2767 5.81973 31.1764C4.54604 30.0012 3.66942 28.5241 3.28465 26.9061C3.22398 26.6479 3.29555 26.3872 3.48096 26.1904C3.66637 25.9946 3.93392 25.8992 4.14523 25.9133C4.16977 25.9178 4.23691 25.9287 4.26179 25.9309C4.66328 25.9658 4.98808 26.2185 5.05216 26.5491C5.5133 28.8693 7.29137 30.8113 9.68877 31.6166C10.4733 31.8847 11.3047 32.0204 12.1594 32.0204H12.8393C13.6941 32.0204 14.5254 31.8847 15.3052 31.6179C17.7264 30.8081 19.5052 28.8517 19.9462 26.5206C20.0048 26.231 20.2147 25.8948 20.6391 25.8164C20.9421 25.7563 21.2403 25.8391 21.455 26.0468C21.6578 26.2426 21.7348 26.5046 21.6667 26.7663C20.8395 29.9655 18.1634 32.5803 14.8482 33.4278C14.5155 33.5129 14.2851 33.7961 14.2851 34.1192L14.2861 42.2832C14.2861 42.679 14.628 42.9999 15.0496 42.9999C15.4712 42.9999 15.813 42.679 15.813 42.2832V34.6504C19.3944 33.5277 22.2424 30.6204 23.1507 27.1055C23.3432 26.3668 23.1193 25.5976 22.5512 25.0483C21.9718 24.4874 21.1381 24.2507 20.3334 24.4119L20.3335 24.4119Z" fill="black"/>
</svg>
