<svg width="36" height="40" viewBox="0 0 36 40" fill="none" xmlns="http://www.w3.org/2000/svg">
<path fill-rule="evenodd" clip-rule="evenodd" d="M23.5046 3.11464C23.5046 2.28879 23.1762 1.49636 22.5923 0.912357C22.008 0.328093 21.2159 0 20.3897 0H3.11471C2.28857 0 1.49643 0.328129 0.912143 0.912357C0.328157 1.49634 0 2.28879 0 3.11464V36.8854C0 37.7112 0.328129 38.5036 0.912143 39.0876C1.49641 39.6719 2.28857 40 3.11471 40H20.3897C21.2159 40 22.008 39.6719 22.5923 39.0876C23.1763 38.5037 23.5046 37.7112 23.5046 36.8854V3.11464ZM22.0984 3.11464C22.0984 2.66151 21.9181 2.22707 21.5978 1.9065C21.2775 1.58619 20.8428 1.40622 20.3897 1.40622H3.11466C2.66153 1.40622 2.2268 1.58619 1.90651 1.9065C1.5862 2.22709 1.40624 2.6615 1.40624 3.11464V36.8854C1.40624 37.3385 1.5862 37.7729 1.90651 38.0935C2.22683 38.4138 2.66151 38.5938 3.11466 38.5938H20.3897C20.8428 38.5938 21.2775 38.4138 21.5978 38.0935C21.9181 37.7729 22.0984 37.3385 22.0984 36.8854V3.11464ZM11.7519 17.8296C7.09514 17.8296 3.31479 21.6104 3.31479 26.2668C3.31479 30.9236 7.0955 34.7039 11.7519 34.7039C16.4087 34.7039 20.1891 30.9232 20.1891 26.2668C20.1891 21.61 16.4084 17.8296 11.7519 17.8296ZM28.3369 28.8782L26.8444 23.3087C26.744 22.9337 26.9669 22.5479 27.3416 22.4474C27.7166 22.3469 28.1022 22.5698 28.203 22.9446L28.2755 23.2163L29.927 23.7082C30.1614 23.778 30.3425 23.9641 30.4055 24.2001L31.0548 26.6229C31.1553 26.9979 30.9323 27.3837 30.5576 27.4842C30.1829 27.5847 29.797 27.3617 29.6965 26.987L29.1491 24.9438L28.703 24.811L29.9432 29.4399C30.028 29.5228 30.1044 29.6135 30.1728 29.7111C30.4468 30.1023 30.5715 30.5825 30.4993 31.1179C30.4108 31.7739 29.9379 32.619 29.0852 33.2161C28.2322 33.8135 27.2763 33.9689 26.6295 33.8274C26.1019 33.7122 25.6935 33.431 25.4192 33.0395C25.1452 32.6481 25.0207 32.1679 25.0927 31.6327C25.1812 30.9768 25.6541 30.1316 26.5071 29.5345C27.1142 29.109 27.7739 28.9078 28.3369 28.8782ZM11.7519 19.2361C15.6325 19.2361 18.7832 22.3867 18.7832 26.2674C18.7832 30.148 15.6326 33.2986 11.7519 33.2986C7.87136 33.2986 4.72064 30.148 4.72064 26.2674C4.72064 22.3867 7.87129 19.2361 11.7519 19.2361ZM27.3141 30.6861C27.9898 30.2129 28.7549 30.1372 29.0211 30.5175C29.2875 30.8976 28.9547 31.5906 28.2789 32.0641C27.6028 32.5373 26.8377 32.6129 26.5716 32.2326C26.3051 31.8523 26.638 31.1596 27.3141 30.6861ZM11.7519 21.3454C9.03543 21.3454 6.83007 23.5507 6.83007 26.2672C6.83007 28.9837 9.03543 31.1891 11.7519 31.1891C14.4684 31.1891 16.6738 28.9837 16.6738 26.2672C16.6738 23.5507 14.4684 21.3454 11.7519 21.3454ZM11.7519 22.7516C13.6922 22.7516 15.2676 24.327 15.2676 26.2673C15.2676 28.2076 13.6922 29.7829 11.7519 29.7829C9.81164 29.7829 8.23629 28.2076 8.23629 26.2673C8.23629 24.327 9.81164 22.7516 11.7519 22.7516ZM32.4776 15.1281L30.9851 9.55857C30.8847 9.18357 31.1076 8.79772 31.4823 8.69722C31.8573 8.59677 32.2429 8.8197 32.3437 9.19442L32.4162 9.46619L34.0677 9.95809C34.3021 10.0278 34.4832 10.214 34.5463 10.45L35.1955 12.8727C35.296 13.2477 35.073 13.6336 34.6983 13.7341C34.3236 13.8345 33.9378 13.6116 33.8373 13.2369L33.2898 11.1937L32.8437 11.0608L34.0839 15.6898C34.1687 15.7726 34.2452 15.8633 34.3135 15.961C34.5875 16.3522 34.7122 16.8323 34.64 17.3678C34.5515 18.0237 34.0786 18.8689 33.2259 19.466C32.373 20.0633 31.417 20.2188 30.7702 20.0773C30.2426 19.9621 29.8342 19.6808 29.5599 19.2894C29.2859 18.8979 29.1615 18.4177 29.2334 17.8826C29.3219 17.2266 29.7948 16.3814 30.6478 15.7844C31.2549 15.3589 31.9146 15.1576 32.4776 15.1281ZM31.4545 16.9361C32.1303 16.4629 32.8954 16.3872 33.1615 16.7675C33.428 17.1476 33.0951 17.8406 32.4193 18.3141C31.7432 18.7873 30.9781 18.8629 30.712 18.4826C30.4455 18.1023 30.7784 17.4096 31.4545 16.9361ZM11.7516 4.70464C9.337 4.70464 7.37664 6.665 7.37664 9.07964C7.37664 11.4943 9.337 13.4546 11.7516 13.4546C14.1663 13.4546 16.1266 11.4943 16.1266 9.07964C16.1266 6.665 14.1663 4.70464 11.7516 4.70464ZM11.7516 6.11093C13.3903 6.11093 14.7204 7.44129 14.7204 9.07964C14.7204 10.718 13.3903 12.0484 11.7516 12.0484C10.1132 12.0484 8.78293 10.718 8.78293 9.07964C8.78293 7.44129 10.1133 6.11093 11.7516 6.11093Z" fill="black"/>
</svg>
