<svg width="40" height="40" viewBox="0 0 40 40" fill="none" xmlns="http://www.w3.org/2000/svg">
<path d="M39.3872 0.0629883H0.604054C0.241496 0.0629883 0 0.304492 0 0.667042C0 1.02959 0.241504 1.2711 0.604054 1.2711H5.25571V9.12419C4.28913 9.90934 4.04758 11.3593 4.71203 12.4466L6.40343 15.165L6.82636 18.4271C6.88673 18.85 7.37004 19.0916 7.73259 18.85L8.27628 18.4875L12.5654 29.059L4.46996 36.5501C4.16778 36.7916 4.22846 37.2749 4.53034 37.4563C7.97355 39.9936 14.7997 40.5976 19.995 39.2081C25.3714 40.658 32.1975 39.8122 35.4596 37.4563C35.7618 37.2148 35.7618 36.7919 35.52 36.5501L27.4261 29.12L31.7152 18.5485L32.2589 18.911C32.6215 19.1525 33.1048 18.911 33.1651 18.4881L33.5881 15.226L35.2795 12.5076C35.9439 11.4202 35.7024 9.97031 34.7358 9.18516L34.7355 1.27148H39.3871C39.7497 1.27148 39.9912 1.02998 39.9912 0.66743C39.9912 0.30488 39.7494 0.0630736 39.3871 0.0630736L39.3872 0.0629883ZM6.16203 9.90984C6.82646 9.48691 7.6723 9.72871 8.03455 10.3328L9.48447 12.6886L7.12862 14.1385L5.6787 11.7827C5.31614 11.1786 5.4973 10.3327 6.16203 9.90984ZM7.61164 15.2863L10.33 13.5949L12.0819 14.7426L7.91354 17.3403L7.61164 15.2863ZM9.30303 17.8839L11.7192 16.3737L19.0893 23.1393L13.5317 28.2136L9.30303 17.8839ZM34.1314 36.9128C31.3527 38.5438 26.4595 39.1479 22.1704 38.4835C22.8349 38.1813 23.3786 37.8794 23.9222 37.5169C24.043 37.4565 24.1034 37.3358 24.1034 37.2754L26.8821 30.3887L34.1314 36.9128ZM26.1572 29.0597V29.1201L23.1365 36.6108C19.0893 39.3292 10.2094 39.45 5.8599 36.9127L13.713 29.7241L28.272 16.3736L30.6882 17.8839L26.1572 29.0597ZM32.1377 17.3403L27.9693 14.7426L29.7211 13.5949L32.4396 15.2863L32.1377 17.3403ZM34.3124 11.8431L32.8625 14.1989L30.5066 12.749L31.9565 10.3932C32.3795 9.72874 33.225 9.54728 33.829 9.97024C34.4938 10.3328 34.675 11.1787 34.3124 11.8431ZM33.5876 8.581C32.5606 8.39988 31.5336 8.8225 30.9295 9.72871L29.2381 12.4471L26.5197 14.1989C26.1572 14.4404 26.1572 14.9841 26.5197 15.226L27.2445 15.6489L19.9955 22.3542L12.8069 15.7092L13.5317 15.2863C13.8943 15.0448 13.8943 14.5011 13.5317 14.2593L10.8133 12.5075L9.06148 9.72871C8.45743 8.82247 7.43044 8.39988 6.40343 8.581V1.27167H33.5269V8.581H33.5876Z" fill="black"/>
</svg>
