<svg width="13" height="13" viewBox="0 0 13 13" fill="none" xmlns="http://www.w3.org/2000/svg">
<path d="M12.75 2.20552C12.2812 2.43018 11.7969 2.58571 11.2812 2.65483C11.8125 2.30921 12.2187 1.75621 12.4062 1.08225C11.9062 1.41059 11.3594 1.63525 10.7812 1.7735C10.3125 1.2205 9.64062 0.874878 8.90625 0.874878C7.48438 0.874878 6.34375 2.15368 6.34375 3.70898C6.34375 3.93363 6.35938 4.14101 6.40625 4.34838C4.28125 4.24469 2.40625 3.10414 1.14063 1.39331C0.234375 3.19055 1.25 4.67672 1.92188 5.17787C1.51563 5.17787 1.10938 5.03962 0.765625 4.83225C0.765625 6.23202 1.65625 7.38985 2.8125 7.64907C2.5625 7.73548 2 7.78732 1.65625 7.70091C1.98438 8.82419 2.9375 9.65368 4.04688 9.67096C3.17188 10.4313 1.89062 11.0362 0.25 10.8461C1.39062 11.6583 2.73437 12.1249 4.1875 12.1249C8.90625 12.1249 11.4687 7.8046 11.4687 4.07188C11.4687 3.95091 11.4688 3.82995 11.4531 3.70898C11.9844 3.27695 12.4219 2.7758 12.75 2.20552Z" fill="black"/>
</svg>
